<svg width="277" height="320" xmlns="http://www.w3.org/2000/svg"><path d="M0 228.137c0-53.536 39.544-83.954 89.43-91.255l71.178-10.95c16.426-2.434 21.902-10.343 21.902-20.685 0-17.642-15.21-32.852-44.411-32.852-32.243 0-49.886 21.902-51.711 44.411L6.084 100.38C9.734 57.186 49.886 0 138.707 0c97.947 0 133.84 54.753 133.84 116.806V264.64c0 23.726 3.042 43.802 3.65 46.844h-83.345c-.609-2.434-3.042-13.384-3.042-34.069C173.992 302.966 144.79 320 104.639 320 38.327 320 0 276.198 0 228.137zm127.148 24.943c27.377 0 55.362-13.384 55.362-60.228v-13.384l-57.187 9.125c-19.467 3.042-34.068 12.167-34.068 33.46 0 15.818 10.342 31.027 35.893 31.027z" fill="#FA344E" fill-rule="evenodd"/></svg>