<svg width="283" height="300" xmlns="http://www.w3.org/2000/svg"><path d="M85.958 116.129h113.283c-1.139-21.632-15.94-47.818-56.926-47.818-36.433 0-54.649 26.755-56.357 47.818zm119.545 73.435l72.296 20.493C264.137 259.013 219.165 300 147.439 300 69.448 300 0 244.213 0 149.146 0 58.065 67.742 0 141.176 0c87.667 0 141.746 54.08 141.746 145.161 0 11.955-1.138 25.048-1.708 26.756H84.25c1.708 31.878 30.74 54.648 64.327 54.648 31.31 0 48.956-14.8 56.926-37.001z" fill="#FDBAB8" fill-rule="evenodd"/></svg>