<svg width="275" height="380" xmlns="http://www.w3.org/2000/svg"><path d="M0 285.4l71.617-20.309c5.345 25.654 26.723 44.36 57.188 44.36 40.618 0 65.738-19.774 65.738-67.876v-12.292c-9.62 14.43-32.602 29.93-71.083 29.93C52.91 259.212 0 203.628 0 129.872 0 59.86 50.774 0 123.46 0c43.291 0 66.273 19.24 73.755 33.136V4.81h77.497V237.3c0 76.427-42.757 142.7-142.166 142.7C56.118 380 7.482 332.968 0 285.4zm138.425-96.736c33.136 0 56.652-22.447 56.652-58.79 0-36.344-26.188-58.791-56.652-58.791-30.464 0-57.187 22.447-57.187 58.79 0 36.344 24.585 58.79 57.187 58.79z" fill="#FA344E" fill-rule="evenodd"/></svg>