<svg width="314" height="420" xmlns="http://www.w3.org/2000/svg"><path d="M306.333 107.415l-80.704 22.734c-2.841-18.755-18.187-50.582-67.063-50.582-33.532 0-55.129 21.028-55.129 43.193 0 19.324 11.935 33.532 39.784 38.647l53.991 10.23c76.726 14.209 116.51 63.654 116.51 121.056 0 63.085-52.856 127.307-148.905 127.307C53.424 420 5.683 347.821 0 290.988l82.409-19.892c3.41 36.942 28.416 69.337 83.545 69.337 35.237 0 56.834-17.05 56.834-42.057 0-20.46-16.482-35.237-43.194-40.352l-55.129-10.23c-68.2-13.071-109.688-58.538-109.688-118.213C14.777 53.424 81.84 0 159.134 0c100.595 0 138.674 60.244 147.199 107.415z" fill="#FA344E" fill-rule="evenodd"/></svg>