<?xml version="1.0" encoding="utf-8"?>
<!-- Generator: Adobe Illustrator 21.1.0, SVG Export Plug-In . SVG Version: 6.00 Build 0)  -->
<svg class="wave" version="1.1" id="Layer_1_1_" xmlns="http://www.w3.org/2000/svg" xmlns:xlink="http://www.w3.org/1999/xlink" x="0px" y="0px"
	 viewBox="0 0 19.3 6" style="enable-background:new 0 0 19.3 6;" xml:space="preserve">
<path fill="#ffffff" class="st0" d="M-5.5,3.8C-4.2,4.8-2.8,6,0,6s4.2-1.2,5.5-2.2C6.6,2.8,7.6,2,9.7,2s3,0.8,4.2,1.8c1.3,1,2.7,2.2,5.5,2.2
	s4.2-1.2,5.5-2.2l-1.4-0.9c-1.1,1-2.1,1.8-4.2,1.8s-3-0.8-4.2-1.8c-1.2-1-2.7-2.2-5.4-2.2c-2.8,0-4.2,1.2-5.5,2.2
	C3,3.9,2.1,4.7,0,4.7s-3-0.8-4.2-1.8L-5.5,3.8z"/>
</svg>
